<?xml version="1.0" encoding="UTF-8"?>
<svg id="Layer_1" data-name="Layer 1" xmlns="http://www.w3.org/2000/svg" viewBox="0 0 1920 100">
  <g id="Layer_1-2" data-name="Layer 1-2">
    <path d="M1920,54.89c-3.98,0-7.65.03-10,.45l-12.98,2.32c-4.26.76-9.52,3.86-14.3,4.28-6.82.61-11.46,1.15-16.96,2.7-26.13,7.33-7.03,2.82-27.86,4.46l-12.63,1-12.46,1.05c-17.24,1.45-36.97.27-52.68-2.69-5.78-1.09-9.48-1.94-15.58-2.16-9.48-.34-18.55-.42-28.66.08-43.48,2.2-48.42-9-69.09-7.69-6.47.41-14.16,1.17-20.84,1.21l-16.93.11c-5.3.03-13.57-1.75-19.7-1.99-37.8,4.57-29.01-2.46-50.22,2.06l-20.63,4.38c-4.22-1.06-6.82-1.3-10.07-.23-3.15,1.04-2.98,2.13-2.7,3.92-3.18.76-13.26,2.8-17.06,2.02l-15.71-4.19c-14.33,3.45-7.23-1.26-23.4,1.09l-8.41-3.07c-24.26.86-9.83-2.96-29.01-2.21-2.73.11-8.65-1.72-10.9-1.09-15.89,4.88-10.73,2.59-35.89,4.11l-14.54.89c-5.57-.4-12.05-1.06-17.69-.64l-10.35.76-15.51.61c-3.53.14-9.73-.44-13.91-.38-4.15.05-8.48-.31-11.8-1.24-28.94-7.99-19.73-1.26-33.54-6.58-2.46-.95-8.52-.87-12.53-.98-5.5-.15-14.3-1.05-18.73.08-3.29.85-7.2,2.32-10.59,1.96-12.18-1.24-21.11-3.93-31.81-6.02-13.88-2.7-31.36-1.66-46.11-3.41-17.51-2.06-35.13-.48-50.54,3.18l-10.14,2.4c-1.18.15-6.06.48-7.34.85l-13.91,4.12c-3.43-2.37-36.34-4.77-37.59-4.71l-11.56.6c-4.08.2-9.76-.07-12.81.1l-13.22.7c-3.39.18-8.96,2.25-12.29,2.73-8.03,1.17-12.88,2.22-16.58,5.58-5.23.42-11.46.8-17.83,1.15-3.84.2-7.75-3.06-11.21-3.51-4.85-.63-10.21-1.39-14.95-2.39-2.73.18-10.21.91-13.15,1.57l-21.11,4.71c-7.58-2.86-16.23-3.56-25.89-3.34l-26.93.61-14.16.57c-5.12.2-10.49.22-15.82.49-6.23.33-10.38-.18-16.44-.95-5.75-.74-11.98-.93-16.65-2.58-4.92-1.75-9.97-1.12-15.78-1.04-6.58.08-13.78-.25-20.32.7-7.65,1.11-13.36.41-21.11-.18-4.47-.2-13.95.42-18.21,1-5.68,1.71-12.84,4.09-18.41,4.75-6.3-1.56-10.8-1.81-17.72-2.02l-13.08-.37c-12.11-.34-22.08-.87-33.64-1.68-6.44-.45-16.86,1.38-23.4.44-6.37,3.77-15.33,3.32-24.75,3.44-21.7.27-21.5.27-41.29,2.25-10.76,1.08-17.69.03-27.55-1.42l-10.52-1.54c-16.79,1.09-35.44-1.36-50.19-4.75-22.64-5.17-20.98-2.05-32.54-2.74-19.49-1.16-15.06,1.24-28.24,1.39-2.73.03-5.92-.22-6.23.33l-1.32,2.47c-10.83.35-21.95-.79-31.01-3.86l-13.71,5.33-15.4.05c-3.39-2.66-13.57-4.5-18.93-2.41-4.5,1.75-8.79,4.2-16.65,3.19-13.15-1.69-19.59,1.34-33.58,4.37-5.88,1.27-15.23,2.11-19.73,3.93-7.62,3.07-14.61,4.57-25.86,2.93-18.35-2.67-16.16-1.23-34.75-4.37-6.2-1.04-10.52-.61-16.93-.44l-39.15,1.01c-5.85.15-14.61-.15-20.56-.56-27.17-1.86-24.82,1.86-56.63,1.94-.28,0-.59,0-.87-.03V-23.04h1920V54.89Z"/>
  </g>
</svg>