<?xml version="1.0" encoding="UTF-8"?>
<svg id="Layer_1" data-name="Layer 1" xmlns="http://www.w3.org/2000/svg" viewBox="0 0 1920 150">
  <path d="M14.58,142.57c2.25.39,4.19,1.06,5.76,1.77,6.83-1.29,12.29-2.43,16.21-3.27,2.3-.49,4.21-.91,6.62-1.54,3.49-.91,6.57-1.87,9.88-2.96l14.12-4.59,16.61-5.26c28.13-8.92,12.52-1.11,30.86-7.95l9.96-3.71c2.6-.97,9.6-1.43,11.88-2.13,6.58-2.04,20.41-7.77,22.15-8.11,5.44-1.07,9.25-2.37,14.01-3.43,2.81-.62,9.46-.84,12.62-1.95,9.32-3.24,35.56-6.01,53.05-6.61,6.61-.23,22.44-5.31,19.84-4.76l22.79-4.79c.92-.19,16.82-8.66,32.07-8.36l9.89-2.17c.96-.21,2.67-.89,3.45-1.13.75-.24,5.01.4,5.94.2,2.67-.59,8.82-1.86,11.06-2.6l9.6-3.14c4.12-1.34,6.9-2.73,12.59-3.72,14.72-2.57,2.28-5.03,19.81-4.52,6.83-1.48,15.79-3.07,24.96-3.94l12.73-1.22c16.53-1.59,25.07-2.65,42.56-3.33,17.17-.66,5.12-2.28,41.75-1.42,4.62.11,7.89.18,11.81-.31l4.98,2.94-.53-3.01c39.65-.93,17.17-2.31,49.07-2.05,15.47.13,19.59-5.59,53.34-7.84,13.73-.91-.6-2.4,25.53-4.46,10.28-.81,18.14-1.86,27.24-3.35l14.22-1,29.3-2.54c5.87.09,11.49-.76,11.06-2.09v-.83c21.78-1.14,43.55-2.29,65.33-3.43,8.39-.59,16.79-1.18,25.18-1.77l19.56.16c16.4,1.57,22.79,1.25,25.49.59.74-.18,2.85-.78,5.92-.85,2.64-.06,3.17.35,5.76.3,3.87-.07,5.1-1.02,7.25-.81,2.18.2,1.92,1.27,3.67,1.9,2,.72,7,1.02,19.72-.59,1.24-.17,3.24-.38,5.76-.4,1.55-.01,4.76-.04,7.54.56,2.98.64,2.19,1.3,4.3,1.62,4.14.63,9.18-1.59,12.74-.98,2.65.45,1.19,1.91,4.01,2.27.95.12,3.76-.08,9.34-.5.19-.01.28-.02.4-.03,3.08-.23,63.35.03,212.22,1.09,5.8-.6,9.07-.33,11.01.07,2.61.54,2.55,1.26,5.45,1.63,3.33.42,7.13-.06,8.61-.25,3.67-.47,5.26-1.15,6.49-.92,1.32.25.3,1.21,1.59,1.4,1.4.21,3.4-.79,5.46-.59.95.09,1.51.4,1.82.63,2.77-.58,5.25-.93,7.05-1.14,3.42-.41,6.64-.78,8.76-.3.96.22.74.45,1.59.74,1.66.56,4.78.54,8.31.26,1.06.26,2.12.52,3.19.78.83-.39,2.11-.87,3.75-.89,1.35-.02,1.68.29,3.41.41,2.32.16,3.32-.28,6.03-.33,1.31-.03,2.36.05,5.12.37,9.34,1.09,11.53,1.88,14.56,1.51.69-.08,1.71-.33,3.75-.81,2.87-.68,3.62-1.01,4.6-.95.55.04,1.75.23,2.46,1.62.78-.02,1.58-.04,2.39-.07,7.12-.3,12.9-1.27,17.18-2.25.39.08.79.17,1.21.27.4.09.78.19,1.13.28-.11.02-.18.04-.11.07l1.74.8c3.91,1.82,14.33.67,20.73,1.28,15.89,1.51,30.83,3.78,48.47,4.3,6.83.21,14.65-.2,21.69.65,1.56.19,4.37.09,6.83,0,7.25-.27,16.53,1.17,23.61,1.06,5.51-.09,8.07-.02,13.62.26l29.94,1.49,10.28,2.52c3.59-.24,10.74-.65,12.34-.07,2.28.83,3.66,2.93,7.15,3.06,3.09.12,8.04-.16,9.53.27,8.64,2.46-5.01,4.52,14.19,6.37,2.7,1.51,7.43,1.7,12.66,2.32,4.87.58,8.75,1.09,14.4,1.48,6.26.43,9.74,2.35,14.61,3.54,7.43,1.83,17.21,4.01,25.64,5.43,2.6.44,9.49.9,12.37,1.14,23.11,1.93,43.81.57,53.98,1.88l17.53,2.25c3.77.48,20.34,2.13,23.75,2.27l11.38.44c-.71,2.25,6.93,3.06,11.98,4.26,4.84,1.15,8.78,2.19,16.07,1.93,3.13.49,7,2.16,9.35,2.8,9.89,1.27,16.53,2.56,25.57,4.47,13.58,2.88,23.33,1.81,33.85,5.54,2.1.81,5.23,1.91,8.5,2.51l9.99,1.84c7.5-.8,12.62-.07,18.6.87l15.97,2.55c2.84.46,4.87,2.55,7.54,3.08l10.35,2.07c47.54,9.52,24.41,11.75,43.41,13.33V0H0v144.51c3.22-1.4,8.46-2.99,14.58-1.94Z"/>
</svg>